<svg width="32" height="32" viewBox="0 0 32 32" fill="#7A7A7A" xmlns="http://www.w3.org/2000/svg">
<path d="M8.41542 10.4594C8.85231 10.8963 9.2892 11.3332 9.72609 11.7701C10.7696 12.8136 11.8131 13.8571 12.8565 14.9006C14.1203 16.1643 15.3804 17.4244 16.6441 18.6881C17.7381 19.7822 18.8322 20.8762 19.9298 21.9738C20.4606 22.5046 20.9805 23.0426 21.5185 23.5625C21.5257 23.5697 21.5329 23.577 21.5402 23.5842C22.0745 24.1186 23.0566 24.1583 23.5838 23.5842C24.1146 23.0065 24.1543 22.111 23.5838 21.5406C23.1469 21.1037 22.71 20.6668 22.2731 20.2299C21.2297 19.1864 20.1862 18.1429 19.1427 17.0994C17.879 15.8357 16.6188 14.5756 15.3551 13.3119C14.2611 12.2178 13.167 11.1238 12.0694 10.0262C11.5386 9.4954 11.0187 8.95741 10.4807 8.43747C10.4735 8.43025 10.4663 8.42303 10.4591 8.41581C9.92468 7.88143 8.94258 7.84172 8.41542 8.41581C7.88466 8.99352 7.84494 9.88896 8.41542 10.4594Z"/>
<path d="M21.5406 8.41962C21.1037 8.85651 20.6668 9.2934 20.2299 9.73029C19.1864 10.7738 18.1429 11.8172 17.0994 12.8607C15.8357 14.1245 14.5756 15.3846 13.3119 16.6483C12.2178 17.7423 11.1238 18.8364 10.0262 19.934C9.4954 20.4648 8.95741 20.9847 8.43747 21.5227C8.43025 21.5299 8.42303 21.5371 8.41581 21.5444C7.88143 22.0787 7.84172 23.0608 8.41581 23.588C8.99352 24.1188 9.88896 24.1585 10.4594 23.588C10.8963 23.1511 11.3332 22.7142 11.7701 22.2773C12.8136 21.2338 13.8571 20.1904 14.9006 19.1469C16.1643 17.8832 17.4244 16.623 18.6881 15.3593C19.7822 14.2653 20.8762 13.1712 21.9738 12.0736C22.5046 11.5428 23.0426 11.0229 23.5625 10.4849C23.5697 10.4777 23.577 10.4705 23.5842 10.4633C24.1186 9.92887 24.1583 8.94678 23.5842 8.41962C23.0065 7.88885 22.111 7.84913 21.5406 8.41962Z"/>
</svg>
